<svg width="1259" height="1259" viewBox="0 0 1259 1259" fill="none" xmlns="http://www.w3.org/2000/svg">
<path fill-rule="evenodd" clip-rule="evenodd" d="M629.5 0C281.837 0 0 281.837 0 629.5C0 977.163 281.837 1259 629.5 1259H1259V629.5C1259 281.837 977.163 0 629.5 0ZM996.852 902.281C1006.23 874.547 1010.91 842.516 1010.91 806.188C1010.91 776.109 1005.84 749.547 995.68 726.5C985.523 703.062 971.852 682.555 954.664 664.977C937.477 647.008 917.555 631.578 894.898 618.688C872.242 605.797 848.414 594.469 823.414 584.703C798.414 574.547 773.023 565.758 747.242 558.336C721.461 550.914 696.852 543.883 673.414 537.242C661.305 533.727 647.828 530.602 632.984 527.867C618.531 524.742 603.688 521.227 588.453 517.32C573.609 513.414 559.156 508.922 545.094 503.844C531.031 498.375 518.336 491.539 507.008 483.336C496.07 475.133 487.281 465.172 480.641 453.453C474 441.734 470.68 427.477 470.68 410.68C470.68 389.586 475.172 372.008 484.156 357.945C493.141 343.492 505.641 332.164 521.656 323.961C538.062 315.367 557.594 309.312 580.25 305.797C602.906 301.891 627.711 299.938 654.664 299.938C675.367 299.938 696.852 304.43 719.117 313.414C741.383 322.008 762.672 334.508 782.984 350.914C803.297 366.93 821.656 386.266 838.062 408.922C854.859 431.578 867.945 456.969 877.32 485.094L996.852 363.805C975.367 339.195 952.32 316.93 927.711 297.008C903.492 276.695 876.734 259.312 847.438 244.859C818.141 230.406 786.109 219.273 751.344 211.461C716.969 203.648 678.688 199.742 636.5 199.742C605.641 199.742 575.367 201.695 545.68 205.602C516.383 209.117 488.648 215.172 462.477 223.766C436.305 231.969 412.281 243.102 390.406 257.164C368.531 270.836 349.586 287.828 333.57 308.141C317.555 328.453 305.055 352.477 296.07 380.211C287.477 407.555 283.18 439 283.18 474.547C283.18 504.234 288.062 530.602 297.828 553.648C307.594 576.305 320.68 596.422 337.086 614C353.492 631.188 372.438 646.227 393.922 659.117C415.797 671.617 438.844 682.75 463.062 692.516C487.281 702.281 511.891 711.07 536.891 718.883C561.891 726.305 585.914 733.336 608.961 739.977C620.68 743.492 634.156 747.008 649.391 750.523C664.625 753.648 680.055 757.359 695.68 761.656C711.695 765.562 727.32 770.445 742.555 776.305C757.789 782.164 771.266 789.391 782.984 797.984C795.094 806.188 804.859 816.148 812.281 827.867C819.703 839.586 823.414 853.648 823.414 870.055C823.414 891.539 818.531 909.508 808.766 923.961C799.391 938.023 786.305 949.352 769.508 957.945C752.711 966.539 732.984 972.789 710.328 976.695C687.672 980.211 663.453 981.969 637.672 981.969C615.797 981.969 592.555 977.281 567.945 967.906C543.336 958.531 519.508 945.641 496.461 929.234C473.805 912.828 452.906 893.297 433.766 870.641C414.625 847.594 399.586 822.594 388.648 795.641L269.117 916.93C296.852 946.617 324.586 971.812 352.32 992.516C380.445 1013.22 409.547 1030.21 439.625 1043.49C470.094 1056.38 502.516 1065.76 536.891 1071.62C571.266 1077.87 608.766 1080.99 649.391 1080.99C680.25 1080.99 710.523 1079.23 740.211 1075.72C770.289 1072.2 798.609 1066.34 825.172 1058.14C852.125 1049.94 876.93 1039 899.586 1025.33C922.242 1011.66 941.773 994.664 958.18 974.352C974.977 954.039 987.867 930.016 996.852 902.281Z" fill="#E40982"/>
</svg>
